<?xml version="1.0"?>
<svg width="200" height="50" xmlns="http://www.w3.org/2000/svg" xmlns:svg="http://www.w3.org/2000/svg" clip-rule="evenodd">
 <defs>
  <style type="text/css">
   <![CDATA[
    .fil0 {fill:none}
    .fil8 {fill:#838281}
    .fil10 {fill:white}
    .fil4 {fill:#FF6600}
    .fil3 {fill:#004B92}
    .fil6 {fill:#D2D1D1}
    .fil7 {fill:#838281;fill-rule:nonzero}
    .fil9 {fill:white;fill-rule:nonzero}
    .fil2 {fill:#FF6600;fill-rule:nonzero}
    .fil1 {fill:#004B92;fill-rule:nonzero}
    .fil5 {fill:#D2D1D1;fill-rule:nonzero}
   ]]>
  </style>
 </defs>
 <g>
  <title>Layer 1</title>
  <metadata id="CorelCorpID_0Corel-Layer"/>
  <g id="_88774392">
   <g id="svg_4">
    <polygon id="_131937720" class="fil1" points="25.155200958251953,4.006099700927734 30.33089828491211,4 30.286800384521484,9.280200958251953 25.112796783447266,9.280200958251953 "/>
    <polygon id="_131937648" class="fil2" points="32.143001556396484,4.857200622558594 41.71549606323242,4.857200622558594 41.71549606323242,14.371299743652344 33.98189926147461,14.400798797607422 33.98189926147461,9.935501098632812 32.143001556396484,9.935501098632812 "/>
    <polygon id="_131937576" class="fil1" points="28.09329605102539,10.792598724365234 32.99650192260742,10.734500885009766 32.9380989074707,15.666500091552734 28.09329605102539,15.637699127197266 "/>
    <polygon id="_131937504" class="fil2" points="21.94900131225586,12.921600341796875 25.480396270751953,12.921600341796875 25.451396942138672,16.482200622558594 21.978496551513672,16.482200622558594 "/>
    <path id="_88774752" class="fil2" d="m30.295399,19.633099c-0.098801,-0.035698 -0.197601,-0.071301 -0.296402,-0.106899c0.0261,-0.0984 0.052101,-0.196598 0.078102,-0.295198c0.075203,-0.284201 0.150398,-0.568502 0.2257,-0.853003c0.026001,-0.098499 0.052101,-0.196999 0.078201,-0.295498c0.098801,0.035698 0.197601,0.0714 0.296295,0.106998c3.776199,1.362602 7.552406,2.725201 11.328606,4.087799c0.098801,0.035603 0.197395,0.071301 0.296196,0.107101c-0.026001,0.098202 -0.051895,0.196602 -0.077896,0.294899c-0.075302,0.284302 -0.150604,0.568501 -0.2257,0.853001c-0.026199,0.098499 -0.0522,0.197201 -0.078201,0.2957c-0.0989,-0.035599 -0.197601,-0.071301 -0.296402,-0.106899c-0.277,-0.099998 -0.554001,-0.200001 -0.831001,-0.299999c0.3871,1.0886 0.774101,2.176998 1.161201,3.265598c-0.344398,-0.546303 -0.688698,-1.092499 -1.033096,-1.638802c-0.044601,0.519203 -0.089302,1.038399 -0.134003,1.557701c-0.238602,-1.148399 -0.477402,-2.2967 -0.716202,-3.445c-1.260399,-0.454899 -1.425598,-0.935299 -1.819702,0.4069c1.088203,1.2439 1.562805,2.956099 1.118805,4.634296c-0.722099,2.729202 -3.599899,4.336107 -6.426804,3.588202c-2.826698,-0.747902 -4.5336,-3.567701 -3.811502,-6.296896c0.417305,-1.577507 1.554901,-2.780006 2.986307,-3.369606c0.631496,-2.1758 0.026897,-1.822903 -1.822504,-2.490402l0,0l0,0.000004l0.000002,0.000002zm11.224602,20.643299c-3.862801,3.8312 -9.179405,6.198898 -15.048302,6.198898c-5.990501,0 -11.4049,-2.466896 -15.285702,-6.438896c-0.067497,-0.906197 -0.113598,-1.813202 -0.106098,-2.722504c0.0804,-2.132797 1.516899,-3.959396 3.322701,-4.9814c2.637,1.791603 6.303802,1.509201 8.664496,-0.627296c0.982704,0.371101 1.880005,0.976997 2.585403,1.747398c1.587997,1.905098 2.778,5.027199 3.6054,8.292c0.027,0.1064 -0.027702,-0.715202 -0.1745,-1.311798c-0.522499,-2.119804 -1.039299,-4.672203 -2.152308,-6.821404c0.724907,-0.846199 1.676805,-1.509895 2.726007,-1.9062c2.360802,2.136497 6.027596,2.418701 8.664398,0.627296c1.806,1.022003 3.242401,2.848404 3.322899,4.9814c0.008202,0.989807 -0.047195,1.976604 -0.124397,2.962505zm-19.091003,-20.6432c0.098602,-0.035797 0.197403,-0.0714 0.296204,-0.106998c-0.026001,-0.0984 -0.052002,-0.1968 -0.077904,-0.2953c-0.075294,-0.2841 -0.150597,-0.568401 -0.2258,-0.852901c-0.025902,-0.098499 -0.052101,-0.196999 -0.078201,-0.295498c-0.098801,0.035599 -0.197594,0.0714 -0.296295,0.106998c-3.776199,1.362602 -7.552402,2.725201 -11.328602,4.087799c-0.098801,0.035603 -0.1973,0.071201 -0.296299,0.107101c0.0261,0.098099 0.051899,0.196602 0.077999,0.294899c0.075199,0.2841 0.150501,0.568501 0.225699,0.8531c0.0261,0.0984 0.0522,0.196899 0.078197,0.295403c0.0989,-0.0354 0.197601,-0.071102 0.296402,-0.106701c0.276999,-0.099998 0.553898,-0.200001 0.831001,-0.299999c-0.387302,1.0886 -0.774002,2.176998 -1.161201,3.265598c0.3442,-0.546303 0.6886,-1.092499 1.033199,-1.638802c0.044502,0.519203 0.089199,1.038399 0.133999,1.557701c0.238503,-1.148598 0.477303,-2.2966 0.716103,-3.444901c1.260597,-0.454998 1.425598,-0.935398 1.8195,0.406801c-1.088,1.2439 -1.5625,2.956099 -1.118603,4.634296c0.722,2.729202 3.599898,4.336107 6.426805,3.588202c2.826698,-0.747902 4.5336,-3.567701 3.811401,-6.296896c-0.417109,-1.577503 -1.554605,-2.780006 -2.986404,-3.369602c-0.631302,-2.1758 -0.026695,-1.822903 1.8228,-2.490303l0,0.000002z"/>
    <path id="_88774680" class="fil3" d="m43.2943,12.148998c2.808296,3.619202 4.480995,8.1633 4.480995,13.097813c0,4.929497 -1.669487,9.469086 -4.4729,13.086395c0.010101,-0.344398 0.014603,-0.688698 0.011803,-1.033195l-0.000298,-0.024513l-0.000999,-0.024498c-0.049904,-1.326302 -0.492004,-2.562698 -1.200401,-3.633598c1.331802,-2.495399 2.087097,-5.344902 2.087097,-8.370598c0,-3.383305 -0.943787,-6.546505 -2.582397,-9.240803l1.677101,0l0,-3.857001l0,-0.000001zm-19.558304,-4.517498c-8.578499,1.280899 -15.160297,8.680698 -15.160297,17.615303c0,3.008598 0.7467,5.842697 2.064499,8.327995c-0.724998,1.080498 -1.1782,2.332199 -1.228901,3.676201l-0.000896,0.024498l-0.000301,0.024605c-0.002701,0.321396 0.000999,0.642899 0.009701,0.963997c-2.771202,-3.605797 -4.4198,-8.119102 -4.4198,-13.017296c0,-10.912303 8.1768,-19.917602 18.735995,-21.224101l0,3.608799l0,-0.000001z"/>
   </g>
   <g id="svg_5">
    <path id="_88774584" class="fil1" d="m55.889095,33.324196l-6.9254,-24.066097l5.104401,0l4.131004,16.997402l3.499004,-16.997402l5.313995,0l3.432999,16.997402l3.707001,-15.176502c0.281006,-1.211899 1.093002,-1.8209 2.448006,-1.8209l3.081001,0l-6.860001,24.066097l-4.759003,0l-3.707001,-18.471897l-3.779007,18.471897l-4.687,0l0,0zm37.04401,-13.361397c-0.699005,-0.979198 -1.654007,-1.4687 -2.865997,-1.4687c-1.307999,0 -2.311005,0.465702 -3.009003,1.397102c-0.699005,0.931297 -1.05101,2.214897 -1.05101,3.8508l0,9.582195l-4.757996,0l0,-24.066097l2.382004,0c0.650993,0 1.212006,0.232903 1.677994,0.698503c0.465012,0.465698 0.697998,1.026999 0.697998,1.677601l0,5.528502c0.836014,-1.396999 2.030014,-2.286606 3.570007,-2.656699c1.534996,-0.376205 3.009003,-0.280605 4.406006,0.280499c1.307999,0.555402 2.399994,1.444901 3.283997,2.656798c0.889999,1.212004 1.330994,2.889605 1.330994,5.038898l0,10.841995l-4.685989,0l0,-9.653893c0,-0.698505 -0.060013,-1.3433 -0.173004,-1.922504c-0.12001,-0.584999 -0.388,-1.181999 -0.806,-1.785l0,0zm7.957985,-5.247898l2.519005,0c0.651001,0 1.213013,0.2332 1.678009,0.698498c0.464996,0.465401 0.69799,1.027599 0.69799,1.6777l0,16.233097l-4.895004,0l0,-18.609295l0,0zm0,-5.456802l2.519005,0c0.651001,0 1.211998,0.232903 1.678009,0.698503c0.464996,0.465599 0.69799,1.027699 0.69799,1.683701l0,1.468597l-4.895004,0l0,-3.850801zm7.141998,24.066097l0,-3.707497l10.007011,-11.050999l-7.069,0c-0.651001,0 -1.21199,-0.2209 -1.677994,-0.6626c-0.464996,-0.447802 -0.697998,-0.997103 -0.697998,-1.647902l0,-1.540298l15.248001,0l0,3.988197l-9.863007,10.561398l10.214996,0l0,4.0597l-16.16201,0z"/>
    <path id="_88774512" class="fil2" d="m127.246109,33.324196l0,-21.546696c0,-0.698503 0.244995,-1.295502 0.733994,-1.785099c0.490005,-0.489502 1.087006,-0.734303 1.785004,-0.734303l2.447998,0l0,9.862901l9.373993,-9.862901l6.227005,0l-9.654007,9.725503l10.49501,14.340595l-6.018005,0l-6.082993,-8.537399c-1.075012,-1.3971 -2.06601,-1.946297 -2.973999,-1.641796c-0.91301,0.304501 -1.367004,0.871597 -1.367004,1.713398l0,8.465797l-4.966995,0zm23.710999,-18.609295l2.518997,0c0.651001,0 1.212997,0.233398 1.677994,0.698498c0.464996,0.465202 0.697998,1.028 0.697998,1.6777l0,16.233097l-4.894989,0l0,-18.609295l0,0zm0,-5.456802l2.518997,0c0.651001,0 1.21199,0.232903 1.677994,0.698503c0.464996,0.465599 0.697998,1.028099 0.697998,1.683701l0,1.468597l-4.894989,0l0,-3.850801zm19.658997,-0.071598l2.382004,0c0.651001,0 1.21199,0.244802 1.677994,0.7343c0.466003,0.489601 0.697998,1.038799 0.697998,1.6418l0,13.648103c0,3.313498 -0.955002,5.552298 -2.871002,6.716497c-1.910995,1.1642 -3.987991,1.749298 -6.22699,1.749298c-1.212006,0 -2.400009,-0.196999 -3.564011,-0.597099c-1.17099,-0.393997 -2.10199,-1.032799 -2.800995,-1.922401c-1.354996,-1.725393 -2.029007,-4.077696 -2.029007,-7.062798c0,-2.943399 0.674011,-5.2957 2.029007,-7.068802c1.397003,-1.8209 3.195007,-2.728396 5.386002,-2.728396c1.169998,0 2.196991,0.232899 3.080002,0.698597c0.931992,0.561101 1.677994,1.283504 2.238998,2.167108l0,-7.976204l0,-0.000002zm-7.975998,14.692799c0,1.868702 0.35199,3.2896 1.050995,4.268703c0.697998,0.979095 1.701004,1.468697 3.009003,1.468697c1.259003,0 2.238998,-0.489601 2.936996,-1.468697c0.651001,-0.979103 0.979004,-2.400002 0.979004,-4.268703c0,-1.677601 -0.352005,-3.008999 -1.050995,-3.988098c-0.746002,-0.9314 -1.749008,-1.3971 -3.009003,-1.3971c-1.212006,0 -2.167007,0.489502 -2.865005,1.468699c-0.699005,0.9314 -1.050995,2.238899 -1.050995,3.9165zm15.102997,9.444897l0,-3.707497l10.005997,-11.050999l-7.069,0c-0.651001,0 -1.21199,-0.2209 -1.677994,-0.6626c-0.464996,-0.447802 -0.697998,-0.997103 -0.697998,-1.647902l0,-1.540298l15.248001,0l0,3.988197l-9.863007,10.561398l10.214996,0l0,4.0597l-16.160995,0l0,0z"/>
    <path id="_88774440" class="fil1" d="m55.689098,41.288696c-0.260002,0 -0.481003,-0.027 -0.663002,-0.081299c-0.182999,-0.054199 -0.331001,-0.130096 -0.445999,-0.227699c-0.114998,-0.097595 -0.198997,-0.2136 -0.250999,-0.348c-0.052002,-0.134399 -0.078003,-0.283997 -0.078003,-0.448799l0,-2.367798c0,-0.1605 0.026001,-0.309006 0.078003,-0.445602c0.052002,-0.136597 0.136002,-0.2537 0.250999,-0.351196c0.114998,-0.097603 0.263,-0.1735 0.445999,-0.227707c0.181999,-0.054298 0.403,-0.081398 0.663002,-0.081398l3.688007,0l0,0.676605l-3.688007,0c-0.381996,0 -0.572998,0.140999 -0.572998,0.422798l0,2.380798c0,0.281898 0.191002,0.422798 0.572998,0.422798l3.688007,0l0,0.676498l-3.688007,0zm9.571995,0c-0.259995,0 -0.480988,-0.027 -0.662994,-0.081299c-0.182999,-0.054199 -0.330994,-0.130096 -0.445999,-0.227699c-0.115005,-0.097595 -0.197998,-0.2136 -0.25,-0.348c-0.052994,-0.134399 -0.078995,-0.283997 -0.078995,-0.448799l0,-2.367798c0,-0.1605 0.026001,-0.309006 0.078995,-0.445602c0.052002,-0.136597 0.134995,-0.2537 0.25,-0.351196c0.115005,-0.097603 0.263,-0.1735 0.445999,-0.227707c0.182007,-0.054298 0.403,-0.081398 0.662994,-0.081398l3.025009,0c0.259995,0 0.481003,0.0271 0.663002,0.081398c0.181999,0.054207 0.330994,0.130104 0.445992,0.227707c0.114998,0.097496 0.197998,0.2146 0.250008,0.351196c0.052002,0.136597 0.077995,0.285103 0.077995,0.445602l0,2.367798c0,0.164803 -0.025993,0.3144 -0.077995,0.448799c-0.05201,0.134399 -0.13501,0.250404 -0.250008,0.348c-0.114998,0.097603 -0.263992,0.1735 -0.445992,0.227699c-0.181999,0.054298 -0.403008,0.081299 -0.663002,0.081299l-3.025009,0zm3.597,-3.480095c0,-0.281799 -0.189987,-0.422798 -0.571991,-0.422798l-3.025009,0c-0.381989,0 -0.571991,0.140999 -0.571991,0.422798l0,2.380798c0,0.281898 0.190002,0.422798 0.571991,0.422798l3.025009,0c0.382004,0 0.571991,-0.1409 0.571991,-0.422798l0,-2.380798zm11.602005,3.480095l0,-3.206894l-2.328995,3.206894l-0.709,0l-2.334999,-3.200394l0,3.200394l-0.800011,0l0,-4.579498l0.806007,0l2.719002,3.740402l2.705994,-3.740402l0.742004,0l0,4.579498l-0.800003,0zm6.261002,-1.691299l0,1.691299l-0.86499,0l0,-4.579498l3.752991,0c0.259995,0 0.481995,0.0271 0.664001,0.081398c0.182007,0.054207 0.330002,0.130104 0.445007,0.227707c0.11499,0.097496 0.19899,0.2146 0.250992,0.351196c0.052002,0.136597 0.078003,0.285103 0.078003,0.445602l0,0.676498c0,0.164803 -0.026001,0.314499 -0.078003,0.448898c-0.052002,0.134399 -0.136002,0.250404 -0.250992,0.348c-0.115005,0.097504 -0.263,0.1735 -0.445007,0.2276c-0.182007,0.054199 -0.404007,0.081299 -0.664001,0.081299l-2.888,0l0,0zm3.460999,-1.788795c0,-0.281799 -0.190994,-0.422798 -0.572998,-0.422798l-2.888,0l0,1.535095l2.888,0c0.382004,0 0.572998,-0.1409 0.572998,-0.422798l0,-0.689499zm6.638,3.480095c-0.259995,0 -0.481003,-0.027 -0.664001,-0.081299c-0.181992,-0.054199 -0.330002,-0.130096 -0.444992,-0.227699c-0.115005,-0.097595 -0.199005,-0.2136 -0.251007,-0.348c-0.05201,-0.134399 -0.078003,-0.283997 -0.078003,-0.448799l0,-3.473701l0.865005,0l0,3.480202c0,0.281898 0.190994,0.422798 0.572998,0.422798l2.843002,0c0.380997,0 0.571999,-0.1409 0.571999,-0.422798l0,-3.480202l0.864998,0l0,3.473701c0,0.164803 -0.015991,0.3144 -0.048996,0.448799c-0.031998,0.134399 -0.095001,0.250404 -0.188004,0.348c-0.093002,0.097603 -0.220993,0.1735 -0.384003,0.227699c-0.162994,0.054298 -0.373993,0.081299 -0.633987,0.081299l-3.025009,0zm10.984009,0l0,-3.902893l-2.401009,0l0,-0.676605l5.600998,0l0,0.676605l-2.334999,0l0,3.902893l-0.86499,0zm7.528992,0l0,-4.579498l4.710007,0l0,0.676605l-3.845001,0l0,1.144897l3.649994,0l0,0.676399l-3.649994,0l0,1.405098l3.845001,0l0,0.676498l-4.710007,0l0,0zm13.546997,0l-1.07399,-2.042496l-2.41301,0l0,2.042496l-0.86499,0l0,-4.579498l3.889999,0c0.259995,0 0.481003,0.0271 0.662994,0.081398c0.182007,0.054207 0.331009,0.130104 0.445999,0.227707c0.115005,0.097496 0.197998,0.2146 0.25,0.351196c0.053009,0.136597 0.078003,0.285103 0.078003,0.445602l0,0.325294c0,0.2948 -0.085999,0.540901 -0.259995,0.738304c-0.173004,0.197296 -0.464005,0.315399 -0.871002,0.3545l1.078995,2.055496l-0.923004,0zm0.110001,-3.480095c0,-0.281799 -0.189987,-0.422798 -0.571991,-0.422798l-3.025009,0l0,1.1838l3.025009,0c0.382004,0 0.571991,-0.1408 0.571991,-0.422806l0,-0.338196l0,0zm12.200012,3.480095c-0.26001,0 -0.48201,-0.027 -0.664001,-0.081299c-0.182007,-0.054199 -0.330002,-0.130096 -0.445007,-0.227699c-0.115005,-0.097595 -0.199005,-0.2136 -0.250992,-0.348c-0.052002,-0.134399 -0.078003,-0.283997 -0.078003,-0.448799l0,-2.367798c0,-0.1605 0.026001,-0.309006 0.078003,-0.445602c0.051987,-0.136597 0.135986,-0.2537 0.250992,-0.351196c0.115005,-0.097603 0.263,-0.1735 0.445007,-0.227707c0.181992,-0.054298 0.403992,-0.081398 0.664001,-0.081398l3.687988,0l0,0.676605l-3.687988,0c-0.382004,0 -0.573013,0.140999 -0.573013,0.422798l0,2.380798c0,0.281898 0.19101,0.422798 0.573013,0.422798l3.687988,0l0,0.676498l-3.687988,0zm8.166992,0l0,-4.579498l4.709,0l0,0.676605l-3.843994,0l0,1.144897l3.649002,0l0,0.676399l-3.649002,0l0,1.405098l3.843994,0l0,0.676498l-4.709,0l0,0zm14.834,0l-4.884995,-3.564697l0,3.564697l-0.753998,0l0,-4.579498l0.748001,0l4.559998,3.402103l0,-3.402103l0.753998,0l0,4.579498l-0.423004,0zm7.145996,0l0,-3.902893l-2.399994,0l0,-0.676605l5.600006,0l0,0.676605l-2.335007,0l0,3.902893l-0.865005,0l0,0zm7.529999,0l0,-4.579498l4.709,0l0,0.676605l-3.843994,0l0,1.144897l3.649002,0l0,0.676399l-3.649002,0l0,1.405098l3.843994,0l0,0.676498l-4.709,0l0,0zm13.546005,0l-1.072998,-2.042496l-2.412994,0l0,2.042496l-0.866013,0l0,-4.579498l3.889999,0c0.261002,0 0.48201,0.0271 0.664001,0.081398c0.182007,0.054207 0.331009,0.130104 0.445999,0.227707c0.114014,0.097496 0.198013,0.2146 0.25,0.351196c0.052002,0.136597 0.078003,0.285103 0.078003,0.445602l0,0.325294c0,0.2948 -0.08699,0.540901 -0.259995,0.738304c-0.173996,0.197296 -0.464005,0.315399 -0.872009,0.3545l1.080002,2.055496l-0.923996,0zm0.111008,-3.480095c0,-0.281799 -0.19101,-0.422798 -0.573013,-0.422798l-3.023987,0l0,1.1838l3.023987,0c0.382004,0 0.573013,-0.1408 0.573013,-0.422806l0,-0.338196l0,0z"/>
   </g>
  </g>
 </g>
</svg>